Coordinates
version=1
nRows=10
nColumns=40
inDegrees=yes

Units are S.I. units (second, meters, Newtons, ...)
If the header above contains a line with 'inDegrees', this indicates whether rotational values are in degrees (yes) or radians (no).

endheader
time	pelvis_tilt	pelvis_list	pelvis_rotation	pelvis_tx	pelvis_ty	pelvis_tz	hip_flexion_r	hip_adduction_r	hip_rotation_r	knee_angle_r	knee_angle_r_beta	ankle_angle_r	subtalar_angle_r	mtp_angle_r	hip_flexion_l	hip_adduction_l	hip_rotation_l	knee_angle_l	knee_angle_l_beta	ankle_angle_l	subtalar_angle_l	mtp_angle_l	lumbar_extension	lumbar_bending	lumbar_rotation	arm_flex_r	arm_add_r	arm_rot_r	elbow_flex_r	pro_sup_r	wrist_flex_r	wrist_dev_r	arm_flex_l	arm_add_l	arm_rot_l	elbow_flex_l	pro_sup_l	wrist_flex_l	wrist_dev_l
      0.39000000	      5.02967807	      3.69618048	     -1.45252474	      0.16855189	      0.84539023	     -0.24715861	     21.76675602	     -9.19149113	     -7.07841612	     54.45120799	      0.95035286	      3.67335558	      0.00000000	      0.00000000	     -5.32902736	     10.49592714	     -2.87954969	      6.53130532	      0.11399278	      6.46193970	      0.00000000	      0.00000000	    -18.16311165	     -3.98900695	     -2.87607408	     -0.48918615	     -3.19616692	     -1.97608930	     34.04758956	     88.77081789	      3.67950482	     22.31405228	     -5.49056005	     -4.04302053	    -11.25063252	     48.76999557	     88.80265987	     -9.89984205	      8.20684768
      0.40000000	      5.06846772	      3.61808291	     -1.06258144	      0.17746477	      0.84520373	     -0.24816939	     22.22422611	     -8.86233412	     -7.33938071	     51.70650097	      0.90244869	      3.85652699	      0.00000000	      0.00000000	     -6.20243868	     10.45836144	     -2.77738724	      6.27919600	      0.10959264	      6.82834592	      0.00000000	      0.00000000	    -18.29194069	     -3.78206740	     -3.15033567	     -0.61558388	     -3.16899561	     -2.18703185	     34.08888314	     88.76726611	      3.68086054	     22.15332877	     -5.21917960	     -4.14396578	    -10.98221973	     49.33581976	     88.78252017	     -9.69164273	      7.98021866
      0.41000000	      5.13307778	      3.57617647	     -0.62476529	      0.18637871	      0.84492536	     -0.24913621	     22.54024557	     -8.57168760	     -7.67809937	     48.76888327	      0.85117759	      3.90671557	      0.00000000	      0.00000000	     -7.11045684	     10.43782788	     -2.61547708	      6.02764443	      0.10520224	      7.22175742	      0.00000000	      0.00000000	    -18.45417165	     -3.61400313	     -3.47481504	     -0.75827149	     -3.11594117	     -2.35907572	     34.13490929	     88.76923489	      3.66946805	     21.95908489	     -4.92917227	     -4.27148674	    -10.71054030	     49.83364926	     88.76164200	     -9.39670023	      7.84466490
      0.42000000	      5.08049070	      3.60442981	     -0.23435923	      0.19515049	      0.84426844	     -0.24998713	     22.96539133	     -8.28921915	     -7.84064751	     45.78627152	      0.79912119	      3.96515068	      0.00000000	      0.00000000	     -7.85323471	     10.48858879	     -2.44444334	      5.82634998	      0.10168899	      7.55071418	      0.00000000	      0.00000000	    -18.48627939	     -3.52579354	     -3.82595583	     -0.84324513	     -3.04174089	     -2.51365648	     34.13366595	     88.77330833	      3.63408519	     21.81923877	     -4.68440886	     -4.43971666	    -10.39792786	     50.35482837	     88.74263116	     -9.10590891	      7.80808430
      0.43000000	      5.13722495	      3.61284113	      0.23492423	      0.20402746	      0.84371578	     -0.25084306	     23.11076435	     -8.02864868	     -8.21923596	     42.61053543	      0.74369414	      3.84448376	      0.00000000	      0.00000000	     -8.73415906	     10.48907474	     -2.20605232	      5.62303492	      0.09814047	      7.99442712	      0.00000000	      0.00000000	    -18.62431189	     -3.40167467	     -4.21843607	     -0.96608603	     -2.95167516	     -2.61569441	     34.15905755	     88.78219545	      3.59373087	     21.63131853	     -4.39120938	     -4.58759318	    -10.11019523	     50.76161722	     88.73550738	     -8.70930254	      7.89183525
      0.44000000	      5.13248349	      3.67398009	      0.68897054	      0.21280049	      0.84289427	     -0.25168638	     23.28411686	     -7.79270227	     -8.48031699	     39.39215516	      0.68752281	      3.69193542	      0.00000000	      0.00000000	     -9.51667881	     10.54171222	     -1.94471802	      5.46722082	      0.09542100	      8.40699035	      0.00000000	      0.00000000	    -18.71029417	     -3.32306161	     -4.63321032	     -1.05814186	     -2.85828473	     -2.72239118	     34.16707638	     88.79501468	      3.53541613	     21.47963433	     -4.10740929	     -4.75212670	     -9.81645573	     51.16931129	     88.73061764	     -8.27641613	      8.07253474
      0.45000000	      4.81446359	      4.12493728	      0.92322683	      0.22148647	      0.84118234	     -0.25211677	     23.96435025	     -7.88003167	     -8.35318203	     36.45194143	      0.63620640	      3.66892231	      0.00000000	      0.00000000	     -9.92665255	     11.04008456	     -1.86531386	      5.34373805	      0.09326582	      8.77041220	      0.00000000	      0.00000000	    -18.46533860	     -3.74064457	     -4.99674494	     -1.18571726	     -2.70942963	     -2.75644647	     34.26660005	     88.80148115	      3.50971528	     21.46444294	     -3.90161809	     -4.91946589	     -9.60623020	     51.57752081	     88.75045380	     -8.13415615	      8.10209982
      0.46000000	      5.09124833	      3.90258180	      1.54130933	      0.23027546	      0.84079229	     -0.25301700	     23.50704044	     -7.39068212	     -8.99465512	     32.87870067	      0.57384158	      3.20824207	      0.00000000	      0.00000000	    -10.98698565	     10.71337699	     -1.33549043	      5.28549900	      0.09224936	      9.28788259	      0.00000000	      0.00000000	    -18.86716751	     -3.30496775	     -5.47884612	     -1.24965321	     -2.59931184	     -2.89495752	     34.28354317	     88.82187934	      3.45567058	     21.28058657	     -3.52387532	     -5.08863003	     -9.24888432	     51.82625427	     88.74085520	     -7.44287507	      8.64028096
      0.47000000	      4.92386330	      4.12218595	      1.86067274	      0.23892383	      0.83926405	     -0.25339046	     23.77757297	     -7.23393061	     -8.98368982	     29.70461502	      0.51844334	      2.95841560	      0.00000000	      0.00000000	    -11.49436679	     10.90540461	     -1.11927025	      5.32709054	      0.09297527	      9.73771187	      0.00000000	      0.00000000	    -18.78981648	     -3.44541573	     -5.86800414	     -1.29114931	     -2.41999965	     -3.00445684	     34.25922432	     88.83903174	      3.42827429	     21.27735176	     -3.25459040	     -5.26816489	     -8.98728242	     52.06958352	     88.75515032	     -7.09174900	      8.93333052
      0.48000000	      4.96643392	      4.23321121	      2.28660271	      0.24767161	      0.83808963	     -0.25398364	     23.66370466	     -7.04697559	     -9.33625668	     26.44329631	      0.46152259	      2.62309394	      0.00000000	      0.00000000	    -12.25670760	     10.94591603	     -0.74167138	      5.34247989	      0.09324386	     10.20753554	      0.00000000	      0.00000000	    -18.95995031	     -3.41857341	     -6.26836083	     -1.42178725	     -2.27285469	     -3.19673610	     34.45218192	     88.84989893	      3.44585953	     21.24312605	     -2.91644093	     -5.40264340	     -8.77865327	     52.30482856	     88.77579816	     -6.36314297	      9.63125514
